<svg width="20" height="20" viewBox="0 0 20 20" fill="none" xmlns="http://www.w3.org/2000/svg">
<path d="M18.2453 11.1117C18.1651 11.0314 18.0646 10.9744 17.9545 10.9469C17.8443 10.9193 17.7288 10.9223 17.6203 10.9555C16.4285 11.3158 15.1614 11.346 13.9538 11.0429C12.7463 10.7398 11.6435 10.1148 10.7632 9.23442C9.88284 8.35406 9.25782 7.25136 8.95474 6.0438C8.65165 4.83625 8.68186 3.56909 9.04214 2.37735C9.07558 2.26875 9.07878 2.1531 9.0514 2.04282C9.02403 1.93255 8.9671 1.83182 8.88676 1.75148C8.80642 1.67113 8.70569 1.61421 8.59541 1.58683C8.48514 1.55946 8.36948 1.56266 8.26089 1.5961C6.61326 2.10082 5.16678 3.11234 4.1273 4.48672C3.21825 5.69364 2.66375 7.13014 2.5261 8.63482C2.38845 10.1395 2.67311 11.6528 3.34809 13.0046C4.02307 14.3564 5.06163 15.4933 6.34709 16.2874C7.63255 17.0815 9.11398 17.5014 10.625 17.5C12.3877 17.5054 14.1036 16.9324 15.5093 15.8688C16.8837 14.8293 17.8952 13.3828 18.4 11.7352C18.433 11.627 18.4361 11.5118 18.4088 11.402C18.3816 11.2923 18.3251 11.1919 18.2453 11.1117ZM14.7578 14.8703C13.434 15.8674 11.7946 16.3527 10.1413 16.237C8.48808 16.1212 6.9323 15.4121 5.76038 14.2403C4.58845 13.0685 3.87926 11.5128 3.76337 9.85953C3.64747 8.2063 4.13267 6.56685 5.12964 5.24297C5.77918 4.38521 6.61891 3.68988 7.58277 3.21172C7.52786 3.59705 7.50019 3.98578 7.49995 4.375C7.50223 6.52919 8.35898 8.59449 9.88222 10.1177C11.4055 11.641 13.4708 12.4977 15.625 12.5C16.015 12.4999 16.4045 12.4722 16.7906 12.4172C16.312 13.3812 15.6161 14.221 14.7578 14.8703Z" fill="#9996FD"/>
</svg>
