<svg width="17" height="17" viewBox="0 0 17 17" fill="none" xmlns="http://www.w3.org/2000/svg">
<path d="M16.3852 7.12501L12.2078 11.3164C12.5641 12.3063 12.7117 13.9641 11.1773 16.0039C11.07 16.1473 10.933 16.2659 10.7757 16.3515C10.6183 16.4372 10.4443 16.4878 10.2656 16.5C10.2359 16.5 10.207 16.5 10.1773 16.5C10.0131 16.5 9.85044 16.4677 9.69869 16.4048C9.54694 16.3419 9.40908 16.2498 9.29297 16.1336L5.52266 12.3594L2.19219 15.6922C2.07491 15.8095 1.91585 15.8754 1.75 15.8754C1.58415 15.8754 1.42509 15.8095 1.30781 15.6922C1.19054 15.5749 1.12465 15.4159 1.12465 15.25C1.12465 15.0842 1.19054 14.9251 1.30781 14.8078L4.64062 11.4774L0.867187 7.70391C0.743155 7.57973 0.646667 7.43081 0.584003 7.26686C0.521339 7.10291 0.493904 6.9276 0.503485 6.75235C0.513066 6.57709 0.559447 6.40582 0.63961 6.24968C0.719772 6.09354 0.831919 5.95603 0.96875 5.8461C2.95469 4.24376 4.85547 4.5586 5.6875 4.81954L9.875 0.617194C9.99108 0.501091 10.1289 0.408991 10.2806 0.346154C10.4322 0.283318 10.5948 0.250977 10.759 0.250977C10.9232 0.250977 11.0857 0.283318 11.2374 0.346154C11.3891 0.408991 11.5269 0.501091 11.643 0.617194L16.3844 5.35782C16.6187 5.59211 16.7504 5.90987 16.7506 6.24125C16.7507 6.57263 16.6193 6.89051 16.3852 7.12501Z" fill="#9996FD"/>
</svg>
