<svg width="20" height="20" viewBox="0 0 20 20" fill="none" xmlns="http://www.w3.org/2000/svg">
<path d="M18.3844 6.35703L13.643 1.6164C13.5269 1.5003 13.3891 1.4082 13.2374 1.34536C13.0857 1.28252 12.9232 1.25018 12.759 1.25018C12.5948 1.25018 12.4322 1.28252 12.2806 1.34536C12.1289 1.4082 11.9911 1.5003 11.875 1.6164L7.68516 5.81953C6.85234 5.55859 4.95078 5.24374 2.96641 6.84609C2.82963 6.95607 2.71755 7.09363 2.63745 7.2498C2.55736 7.40597 2.51105 7.57726 2.50155 7.75251C2.49204 7.92776 2.51955 8.10306 2.58227 8.26698C2.645 8.43089 2.74155 8.57977 2.86563 8.7039L6.64063 12.4773L3.30781 15.8078C3.19054 15.9251 3.12465 16.0841 3.12465 16.25C3.12465 16.4158 3.19054 16.5749 3.30781 16.6922C3.42509 16.8095 3.58415 16.8753 3.75 16.8753C3.91585 16.8753 4.07491 16.8095 4.19219 16.6922L7.52266 13.3594L11.2953 17.132C11.4113 17.2485 11.5491 17.3409 11.7009 17.4041C11.8526 17.4672 12.0153 17.4998 12.1797 17.5C12.2094 17.5 12.2383 17.5 12.268 17.5C12.4462 17.4876 12.6196 17.4371 12.7765 17.3518C12.9334 17.2664 13.0701 17.1483 13.1773 17.0055C14.7117 14.9664 14.5641 13.3086 14.2078 12.318L18.3852 8.12499C18.5012 8.00887 18.5932 7.87101 18.656 7.71931C18.7188 7.56761 18.7511 7.40502 18.751 7.24085C18.7509 7.07667 18.7185 6.91412 18.6556 6.76247C18.5927 6.61082 18.5005 6.47305 18.3844 6.35703ZM17.5 7.2414L13.0258 11.7305C12.9334 11.8232 12.8724 11.9426 12.8516 12.0719C12.8307 12.2011 12.8509 12.3336 12.9094 12.4508C13.6484 13.9297 12.7688 15.4656 12.1797 16.2492L3.75 7.81874C4.69375 7.05781 5.59688 6.85703 6.2875 6.85703C6.72572 6.85104 7.16033 6.93701 7.56328 7.10937C7.68084 7.1682 7.81395 7.18847 7.9437 7.16729C8.07344 7.14611 8.19319 7.08456 8.28594 6.9914L12.7594 2.49999L17.5 7.24062V7.2414Z" fill="#9996FD"/>
</svg>
