<svg width="64" height="64" viewBox="0 0 64 64" fill="none" xmlns="http://www.w3.org/2000/svg">
<path d="M57.7299 53C53.9224 46.4175 48.0549 41.6975 41.2074 39.46C44.5945 37.4437 47.2261 34.3712 48.698 30.7145C50.1699 27.0578 50.4007 23.019 49.3551 19.2184C48.3095 15.4178 46.0451 12.0655 42.9099 9.67634C39.7746 7.28717 35.9418 5.99323 31.9999 5.99323C28.0581 5.99323 24.2253 7.28717 21.09 9.67634C17.9547 12.0655 15.6904 15.4178 14.6448 19.2184C13.5992 23.019 13.83 27.0578 15.3019 30.7145C16.7738 34.3712 19.4054 37.4437 22.7924 39.46C15.9449 41.695 10.0774 46.415 6.26994 53C6.13032 53.2277 6.0377 53.481 5.99757 53.7451C5.95743 54.0091 5.97059 54.2785 6.03626 54.5374C6.10192 54.7963 6.21878 55.0394 6.37992 55.2524C6.54107 55.4653 6.74324 55.6439 6.97451 55.7775C7.20577 55.9111 7.46146 55.997 7.72646 56.0301C7.99147 56.0633 8.26044 56.0431 8.5175 55.9706C8.77456 55.8981 9.0145 55.7749 9.22316 55.6082C9.43183 55.4415 9.605 55.2347 9.73244 55C14.4424 46.86 22.7674 42 31.9999 42C41.2324 42 49.5574 46.86 54.2674 55C54.3949 55.2347 54.5681 55.4415 54.7767 55.6082C54.9854 55.7749 55.2253 55.8981 55.4824 55.9706C55.7394 56.0431 56.0084 56.0633 56.2734 56.0301C56.5384 55.997 56.7941 55.9111 57.0254 55.7775C57.2566 55.6439 57.4588 55.4653 57.62 55.2524C57.7811 55.0394 57.898 54.7963 57.9636 54.5374C58.0293 54.2785 58.0425 54.0091 58.0023 53.7451C57.9622 53.481 57.8696 53.2277 57.7299 53ZM17.9999 24C17.9999 21.2311 18.821 18.5243 20.3594 16.222C21.8977 13.9198 24.0842 12.1253 26.6424 11.0657C29.2005 10.0061 32.0155 9.72884 34.7312 10.269C37.4469 10.8092 39.9415 12.1426 41.8994 14.1005C43.8574 16.0585 45.1907 18.553 45.7309 21.2688C46.2711 23.9845 45.9939 26.7994 44.9343 29.3576C43.8746 31.9158 42.0802 34.1023 39.7779 35.6406C37.4756 37.1789 34.7689 38 31.9999 38C28.2881 37.9961 24.7295 36.5198 22.1048 33.8951C19.4802 31.2705 18.0039 27.7118 17.9999 24Z" fill="white"/>
</svg>
