<svg width="249" height="54" viewBox="0 0 249 54" fill="none" xmlns="http://www.w3.org/2000/svg">
<path d="M15.888 43.24C13.424 43.24 11.216 42.664 9.264 41.512C7.312 40.328 5.76 38.728 4.608 36.712C3.488 34.696 2.928 32.424 2.928 29.896C2.928 27.336 3.504 25.048 4.656 23.032C5.84 21.016 7.44 19.432 9.456 18.28C11.472 17.096 13.744 16.504 16.272 16.504C18.8 16.504 21.056 17.096 23.04 18.28C25.056 19.432 26.64 21.016 27.792 23.032C28.976 25.048 29.584 27.336 29.616 29.896L28.128 31.048C28.128 33.352 27.584 35.432 26.496 37.288C25.44 39.112 23.984 40.568 22.128 41.656C20.304 42.712 18.224 43.24 15.888 43.24ZM16.272 39.88C18.128 39.88 19.776 39.448 21.216 38.584C22.688 37.72 23.84 36.536 24.672 35.032C25.536 33.496 25.968 31.784 25.968 29.896C25.968 27.976 25.536 26.264 24.672 24.76C23.84 23.256 22.688 22.072 21.216 21.208C19.776 20.312 18.128 19.864 16.272 19.864C14.448 19.864 12.8 20.312 11.328 21.208C9.856 22.072 8.688 23.256 7.824 24.76C6.96 26.264 6.528 27.976 6.528 29.896C6.528 31.784 6.96 33.496 7.824 35.032C8.688 36.536 9.856 37.72 11.328 38.584C12.8 39.448 14.448 39.88 16.272 39.88ZM27.744 43C27.2 43 26.752 42.84 26.4 42.52C26.048 42.168 25.872 41.72 25.872 41.176V32.968L26.784 29.176L29.616 29.896V41.176C29.616 41.72 29.44 42.168 29.088 42.52C28.736 42.84 28.288 43 27.744 43ZM51.1564 43.24C48.6284 43.24 46.3564 42.664 44.3404 41.512C42.3244 40.328 40.7244 38.728 39.5404 36.712C38.3884 34.696 37.8124 32.408 37.8124 29.848C37.8124 27.32 38.3724 25.048 39.4924 23.032C40.6444 21.016 42.1964 19.432 44.1484 18.28C46.1004 17.096 48.3084 16.504 50.7724 16.504C52.9164 16.504 54.8524 16.968 56.5804 17.896C58.3084 18.792 59.7004 19.992 60.7564 21.496V7.384C60.7564 6.808 60.9324 6.36 61.2844 6.04C61.6364 5.688 62.0844 5.512 62.6284 5.512C63.1724 5.512 63.6204 5.688 63.9724 6.04C64.3244 6.36 64.5004 6.808 64.5004 7.384V30.04C64.4364 32.536 63.8124 34.792 62.6284 36.808C61.4764 38.792 59.8924 40.36 57.8764 41.512C55.8924 42.664 53.6524 43.24 51.1564 43.24ZM51.1564 39.88C53.0124 39.88 54.6604 39.448 56.1004 38.584C57.5724 37.688 58.7244 36.488 59.5564 34.984C60.4204 33.48 60.8524 31.768 60.8524 29.848C60.8524 27.96 60.4204 26.264 59.5564 24.76C58.7244 23.224 57.5724 22.024 56.1004 21.16C54.6604 20.296 53.0124 19.864 51.1564 19.864C49.3324 19.864 47.6844 20.296 46.2124 21.16C44.7404 22.024 43.5724 23.224 42.7084 24.76C41.8444 26.264 41.4124 27.96 41.4124 29.848C41.4124 31.768 41.8444 33.48 42.7084 34.984C43.5724 36.488 44.7404 37.688 46.2124 38.584C47.6844 39.448 49.3324 39.88 51.1564 39.88ZM78.1819 43C77.6059 43 77.1419 42.84 76.7899 42.52C76.4699 42.168 76.3099 41.704 76.3099 41.128V18.616C76.3099 18.04 76.4699 17.592 76.7899 17.272C77.1419 16.92 77.6059 16.744 78.1819 16.744C78.7259 16.744 79.1579 16.92 79.4779 17.272C79.8299 17.592 80.0059 18.04 80.0059 18.616V41.128C80.0059 41.704 79.8299 42.168 79.4779 42.52C79.1579 42.84 78.7259 43 78.1819 43ZM78.1339 11.752C77.4299 11.752 76.8219 11.496 76.3099 10.984C75.7979 10.472 75.5419 9.848 75.5419 9.112C75.5419 8.312 75.7979 7.688 76.3099 7.24C76.8539 6.76 77.4779 6.52 78.1819 6.52C78.8539 6.52 79.4459 6.76 79.9579 7.24C80.5019 7.688 80.7739 8.312 80.7739 9.112C80.7739 9.848 80.5179 10.472 80.0059 10.984C79.4939 11.496 78.8699 11.752 78.1339 11.752ZM103.529 43.24C101.001 43.24 98.7449 42.664 96.7609 41.512C94.8089 40.328 93.2569 38.728 92.1049 36.712C90.9849 34.696 90.4249 32.424 90.4249 29.896C90.4249 27.336 90.9689 25.048 92.0569 23.032C93.1449 21.016 94.6329 19.432 96.5209 18.28C98.4089 17.096 100.585 16.504 103.049 16.504C105.001 16.504 106.793 16.888 108.425 17.656C110.089 18.424 111.545 19.576 112.793 21.112C113.145 21.496 113.273 21.912 113.177 22.36C113.081 22.776 112.809 23.144 112.361 23.464C112.009 23.72 111.609 23.816 111.161 23.752C110.745 23.656 110.377 23.416 110.057 23.032C108.201 20.92 105.865 19.864 103.049 19.864C101.257 19.864 99.6729 20.296 98.2969 21.16C96.9529 22.024 95.8969 23.208 95.1289 24.712C94.3929 26.216 94.0249 27.944 94.0249 29.896C94.0249 31.816 94.4249 33.528 95.2249 35.032C96.0249 36.536 97.1449 37.72 98.5849 38.584C100.025 39.448 101.673 39.88 103.529 39.88C104.777 39.88 105.913 39.72 106.937 39.4C107.993 39.048 108.921 38.52 109.721 37.816C110.105 37.496 110.505 37.32 110.921 37.288C111.337 37.256 111.721 37.384 112.073 37.672C112.457 38.024 112.665 38.424 112.697 38.872C112.761 39.32 112.617 39.704 112.265 40.024C109.929 42.168 107.017 43.24 103.529 43.24ZM125.404 43C124.828 43 124.364 42.84 124.012 42.52C123.692 42.168 123.532 41.704 123.532 41.128V18.616C123.532 18.04 123.692 17.592 124.012 17.272C124.364 16.92 124.828 16.744 125.404 16.744C125.948 16.744 126.38 16.92 126.7 17.272C127.052 17.592 127.228 18.04 127.228 18.616V41.128C127.228 41.704 127.052 42.168 126.7 42.52C126.38 42.84 125.948 43 125.404 43ZM125.356 11.752C124.652 11.752 124.044 11.496 123.532 10.984C123.02 10.472 122.764 9.848 122.764 9.112C122.764 8.312 123.02 7.688 123.532 7.24C124.076 6.76 124.7 6.52 125.404 6.52C126.076 6.52 126.668 6.76 127.18 7.24C127.724 7.688 127.996 8.312 127.996 9.112C127.996 9.848 127.74 10.472 127.228 10.984C126.716 11.496 126.092 11.752 125.356 11.752ZM194.476 43C193.932 43 193.484 42.824 193.132 42.472C192.78 42.12 192.604 41.688 192.604 41.176V28.696C192.604 26.712 192.22 25.08 191.452 23.8C190.716 22.52 189.692 21.56 188.38 20.92C187.1 20.28 185.644 19.96 184.012 19.96C182.444 19.96 181.02 20.264 179.74 20.872C178.492 21.48 177.5 22.312 176.764 23.368C176.028 24.424 175.66 25.624 175.66 26.968H173.02C173.084 24.952 173.628 23.16 174.652 21.592C175.676 19.992 177.036 18.744 178.732 17.848C180.428 16.92 182.316 16.456 184.396 16.456C186.668 16.456 188.7 16.936 190.492 17.896C192.284 18.824 193.692 20.2 194.716 22.024C195.772 23.848 196.3 26.072 196.3 28.696V41.176C196.3 41.688 196.124 42.12 195.772 42.472C195.42 42.824 194.988 43 194.476 43ZM173.836 43C173.26 43 172.796 42.84 172.444 42.52C172.124 42.168 171.964 41.72 171.964 41.176V18.616C171.964 18.04 172.124 17.592 172.444 17.272C172.796 16.92 173.26 16.744 173.836 16.744C174.38 16.744 174.812 16.92 175.132 17.272C175.484 17.592 175.66 18.04 175.66 18.616V41.176C175.66 41.72 175.484 42.168 175.132 42.52C174.812 42.84 174.38 43 173.836 43ZM218.752 43.24C216.16 43.24 213.856 42.68 211.84 41.56C209.856 40.408 208.288 38.824 207.136 36.808C206.016 34.792 205.456 32.488 205.456 29.896C205.456 27.272 205.984 24.968 207.04 22.984C208.128 20.968 209.616 19.384 211.504 18.232C213.392 17.08 215.568 16.504 218.032 16.504C220.464 16.504 222.576 17.064 224.368 18.184C226.192 19.272 227.6 20.792 228.592 22.744C229.584 24.696 230.08 26.92 230.08 29.416C230.08 29.928 229.92 30.344 229.6 30.664C229.28 30.952 228.864 31.096 228.352 31.096H207.952V28.024H228.736L226.672 29.512C226.704 27.656 226.368 25.992 225.664 24.52C224.96 23.048 223.952 21.896 222.64 21.064C221.36 20.232 219.824 19.816 218.032 19.816C216.208 19.816 214.608 20.248 213.232 21.112C211.856 21.976 210.784 23.176 210.016 24.712C209.28 26.216 208.912 27.944 208.912 29.896C208.912 31.848 209.328 33.576 210.16 35.08C211.024 36.584 212.192 37.768 213.664 38.632C215.136 39.496 216.832 39.928 218.752 39.928C219.904 39.928 221.056 39.736 222.208 39.352C223.392 38.936 224.336 38.424 225.04 37.816C225.392 37.528 225.792 37.384 226.24 37.384C226.688 37.352 227.072 37.464 227.392 37.72C227.808 38.104 228.016 38.52 228.016 38.968C228.048 39.416 227.872 39.8 227.488 40.12C226.432 41.016 225.088 41.768 223.456 42.376C221.824 42.952 220.256 43.24 218.752 43.24ZM241.373 43C240.797 43 240.333 42.84 239.981 42.52C239.661 42.168 239.501 41.704 239.501 41.128V18.616C239.501 18.04 239.661 17.592 239.981 17.272C240.333 16.92 240.797 16.744 241.373 16.744C241.917 16.744 242.349 16.92 242.669 17.272C243.021 17.592 243.197 18.04 243.197 18.616V41.128C243.197 41.704 243.021 42.168 242.669 42.52C242.349 42.84 241.917 43 241.373 43ZM241.325 11.752C240.621 11.752 240.013 11.496 239.501 10.984C238.989 10.472 238.733 9.848 238.733 9.112C238.733 8.312 238.989 7.688 239.501 7.24C240.045 6.76 240.669 6.52 241.373 6.52C242.045 6.52 242.637 6.76 243.149 7.24C243.693 7.688 243.965 8.312 243.965 9.112C243.965 9.848 243.709 10.472 243.197 10.984C242.685 11.496 242.061 11.752 241.325 11.752Z" fill="#332E4B"/>
<path d="M150 15C147.231 15 144.524 15.8211 142.222 17.3594C139.92 18.8978 138.125 21.0843 137.066 23.6424C136.006 26.2006 135.729 29.0155 136.269 31.7313C136.809 34.447 138.143 36.9416 140.101 38.8995C142.058 40.8574 144.553 42.1908 147.269 42.731C149.984 43.2712 152.799 42.9939 155.358 41.9343C157.916 40.8747 160.102 39.0803 161.641 36.778C163.179 34.4757 164 31.7689 164 29C163.996 25.2882 162.52 21.7295 159.895 19.1048C157.271 16.4802 153.712 15.0039 150 15ZM150 40.8461C147.657 40.8461 145.367 40.1514 143.419 38.8497C141.471 37.548 139.952 35.6979 139.056 33.5333C138.159 31.3687 137.924 28.9869 138.381 26.6889C138.839 24.391 139.967 22.2802 141.624 20.6235C143.28 18.9668 145.391 17.8386 147.689 17.3815C149.987 16.9244 152.369 17.159 154.533 18.0556C156.698 18.9522 158.548 20.4705 159.85 22.4186C161.151 24.3667 161.846 26.6571 161.846 29C161.843 32.1407 160.593 35.1517 158.373 37.3726C156.152 39.5934 153.141 40.8426 150 40.8461ZM156.462 29C156.462 29.2856 156.348 29.5595 156.146 29.7615C155.944 29.9635 155.67 30.0769 155.385 30.0769H151.077V34.3846C151.077 34.6702 150.963 34.9442 150.762 35.1461C150.56 35.3481 150.286 35.4615 150 35.4615C149.714 35.4615 149.44 35.3481 149.239 35.1461C149.037 34.9442 148.923 34.6702 148.923 34.3846V30.0769H144.615C144.33 30.0769 144.056 29.9635 143.854 29.7615C143.652 29.5595 143.538 29.2856 143.538 29C143.538 28.7144 143.652 28.4405 143.854 28.2385C144.056 28.0365 144.33 27.9231 144.615 27.9231H148.923V23.6154C148.923 23.3298 149.037 23.0558 149.239 22.8539C149.44 22.6519 149.714 22.5385 150 22.5385C150.286 22.5385 150.56 22.6519 150.762 22.8539C150.963 23.0558 151.077 23.3298 151.077 23.6154V27.9231H155.385C155.67 27.9231 155.944 28.0365 156.146 28.2385C156.348 28.4405 156.462 28.7144 156.462 29Z" fill="#9996FD"/>
</svg>
