<svg width="148" height="32" viewBox="0 0 148 32" fill="none" xmlns="http://www.w3.org/2000/svg">
<path d="M9.41511 25.6237C7.95496 25.6237 6.64652 25.2824 5.48978 24.5997C4.33304 23.8981 3.41333 22.9499 2.73067 21.7552C2.06696 20.5606 1.73511 19.2142 1.73511 17.7161C1.73511 16.1991 2.07644 14.8432 2.75911 13.6486C3.46074 12.4539 4.40889 11.5152 5.60356 10.8326C6.79822 10.1309 8.14459 9.78013 9.64267 9.78013C11.1407 9.78013 12.4776 10.1309 13.6533 10.8326C14.848 11.5152 15.7867 12.4539 16.4693 13.6486C17.171 14.8432 17.5313 16.1991 17.5502 17.7161L16.6684 18.3988C16.6684 19.7641 16.3461 20.9967 15.7013 22.0966C15.0756 23.1775 14.2127 24.0403 13.1129 24.685C12.032 25.3108 10.7994 25.6237 9.41511 25.6237ZM9.64267 23.6326C10.7425 23.6326 11.7191 23.3766 12.5724 22.8646C13.4447 22.3526 14.1274 21.6509 14.6204 20.7597C15.1324 19.8495 15.3884 18.8349 15.3884 17.7161C15.3884 16.5784 15.1324 15.5638 14.6204 14.6726C14.1274 13.7813 13.4447 13.0797 12.5724 12.5677C11.7191 12.0367 10.7425 11.7712 9.64267 11.7712C8.56178 11.7712 7.58519 12.0367 6.71289 12.5677C5.84059 13.0797 5.14844 13.7813 4.63644 14.6726C4.12444 15.5638 3.86844 16.5784 3.86844 17.7161C3.86844 18.8349 4.12444 19.8495 4.63644 20.7597C5.14844 21.6509 5.84059 22.3526 6.71289 22.8646C7.58519 23.3766 8.56178 23.6326 9.64267 23.6326ZM16.4409 25.4815C16.1185 25.4815 15.853 25.3867 15.6444 25.197C15.4359 24.9884 15.3316 24.7229 15.3316 24.4006V19.5366L15.872 17.2895L17.5502 17.7161V24.4006C17.5502 24.7229 17.4459 24.9884 17.2373 25.197C17.0287 25.3867 16.7633 25.4815 16.4409 25.4815ZM30.3149 25.6237C28.8168 25.6237 27.4705 25.2824 26.2758 24.5997C25.0811 23.8981 24.133 22.9499 23.4313 21.7552C22.7487 20.5606 22.4073 19.2047 22.4073 17.6877C22.4073 16.1896 22.7392 14.8432 23.4029 13.6486C24.0856 12.4539 25.0053 11.5152 26.162 10.8326C27.3188 10.1309 28.6272 9.78013 30.0873 9.78013C31.3579 9.78013 32.5051 10.0551 33.5291 10.605C34.5531 11.136 35.378 11.8471 36.0038 12.7384V4.37569C36.0038 4.03436 36.1081 3.76888 36.3167 3.57925C36.5253 3.37065 36.7908 3.26636 37.1131 3.26636C37.4355 3.26636 37.701 3.37065 37.9096 3.57925C38.1182 3.76888 38.2225 4.03436 38.2225 4.37569V17.8015C38.1845 19.2806 37.8148 20.6175 37.1131 21.8121C36.4305 22.9878 35.4918 23.917 34.2971 24.5997C33.1214 25.2824 31.794 25.6237 30.3149 25.6237ZM30.3149 23.6326C31.4148 23.6326 32.3913 23.3766 33.2447 22.8646C34.117 22.3336 34.7996 21.6225 35.2927 20.7312C35.8047 19.84 36.0607 18.8255 36.0607 17.6877C36.0607 16.5689 35.8047 15.5638 35.2927 14.6726C34.7996 13.7624 34.117 13.0512 33.2447 12.5392C32.3913 12.0272 31.4148 11.7712 30.3149 11.7712C29.234 11.7712 28.2574 12.0272 27.3851 12.5392C26.5128 13.0512 25.8207 13.7624 25.3087 14.6726C24.7967 15.5638 24.5407 16.5689 24.5407 17.6877C24.5407 18.8255 24.7967 19.84 25.3087 20.7312C25.8207 21.6225 26.5128 22.3336 27.3851 22.8646C28.2574 23.3766 29.234 23.6326 30.3149 23.6326ZM46.33 25.4815C45.9887 25.4815 45.7137 25.3867 45.5051 25.197C45.3155 24.9884 45.2207 24.7135 45.2207 24.3721V11.0317C45.2207 10.6904 45.3155 10.4249 45.5051 10.2352C45.7137 10.0267 45.9887 9.92236 46.33 9.92236C46.6524 9.92236 46.9084 10.0267 47.098 10.2352C47.3066 10.4249 47.4109 10.6904 47.4109 11.0317V24.3721C47.4109 24.7135 47.3066 24.9884 47.098 25.197C46.9084 25.3867 46.6524 25.4815 46.33 25.4815ZM46.3016 6.96413C45.8844 6.96413 45.5241 6.81243 45.2207 6.50902C44.9173 6.20562 44.7656 5.83584 44.7656 5.39969C44.7656 4.92562 44.9173 4.55584 45.2207 4.29036C45.543 4.00591 45.9128 3.86369 46.33 3.86369C46.7282 3.86369 47.0791 4.00591 47.3825 4.29036C47.7048 4.55584 47.866 4.92562 47.866 5.39969C47.866 5.83584 47.7143 6.20562 47.4109 6.50902C47.1075 6.81243 46.7377 6.96413 46.3016 6.96413ZM61.3505 25.6237C59.8524 25.6237 58.5155 25.2824 57.3398 24.5997C56.1831 23.8981 55.2633 22.9499 54.5807 21.7552C53.917 20.5606 53.5851 19.2142 53.5851 17.7161C53.5851 16.1991 53.9075 14.8432 54.5522 13.6486C55.197 12.4539 56.0788 11.5152 57.1976 10.8326C58.3164 10.1309 59.6059 9.78013 61.0661 9.78013C62.2228 9.78013 63.2847 10.0077 64.2519 10.4628C65.2379 10.9179 66.1007 11.6006 66.8403 12.5108C67.0489 12.7384 67.1247 12.9849 67.0679 13.2504C67.011 13.4969 66.8498 13.7149 66.5843 13.9046C66.3757 14.0563 66.1387 14.1132 65.8732 14.0752C65.6267 14.0184 65.4086 13.8761 65.219 13.6486C64.1191 12.397 62.7348 11.7712 61.0661 11.7712C60.0042 11.7712 59.0654 12.0272 58.25 12.5392C57.4536 13.0512 56.8278 13.7529 56.3727 14.6441C55.9365 15.5354 55.7185 16.5594 55.7185 17.7161C55.7185 18.8539 55.9555 19.8684 56.4296 20.7597C56.9036 21.6509 57.5673 22.3526 58.4207 22.8646C59.2741 23.3766 60.2507 23.6326 61.3505 23.6326C62.0901 23.6326 62.7633 23.5378 63.3701 23.3481C63.9958 23.1395 64.5458 22.8267 65.0199 22.4095C65.2474 22.2198 65.4844 22.1155 65.731 22.0966C65.9775 22.0776 66.205 22.1535 66.4136 22.3241C66.6412 22.5327 66.7644 22.7698 66.7834 23.0352C66.8213 23.3007 66.736 23.5283 66.5274 23.7179C65.1431 24.9884 63.4175 25.6237 61.3505 25.6237ZM74.3135 25.4815C73.9721 25.4815 73.6972 25.3867 73.4886 25.197C73.299 24.9884 73.2041 24.7135 73.2041 24.3721V11.0317C73.2041 10.6904 73.299 10.4249 73.4886 10.2352C73.6972 10.0267 73.9721 9.92236 74.3135 9.92236C74.6359 9.92236 74.8918 10.0267 75.0815 10.2352C75.2901 10.4249 75.3944 10.6904 75.3944 11.0317V24.3721C75.3944 24.7135 75.2901 24.9884 75.0815 25.197C74.8918 25.3867 74.6359 25.4815 74.3135 25.4815ZM74.285 6.96413C73.8679 6.96413 73.5076 6.81243 73.2041 6.50902C72.9007 6.20562 72.749 5.83584 72.749 5.39969C72.749 4.92562 72.9007 4.55584 73.2041 4.29036C73.5265 4.00591 73.8963 3.86369 74.3135 3.86369C74.7117 3.86369 75.0625 4.00591 75.3659 4.29036C75.6883 4.55584 75.8495 4.92562 75.8495 5.39969C75.8495 5.83584 75.6978 6.20562 75.3944 6.50902C75.091 6.81243 74.7212 6.96413 74.285 6.96413ZM115.245 25.4815C114.923 25.4815 114.657 25.3772 114.449 25.1686C114.24 24.96 114.136 24.704 114.136 24.4006V17.005C114.136 15.8293 113.908 14.8622 113.453 14.1037C113.017 13.3452 112.41 12.7763 111.633 12.397C110.874 12.0178 110.011 11.8281 109.044 11.8281C108.115 11.8281 107.271 12.0083 106.513 12.3686C105.773 12.7289 105.185 13.2219 104.749 13.8477C104.313 14.4735 104.095 15.1846 104.095 15.981H102.53C102.568 14.7864 102.891 13.7244 103.497 12.7952C104.104 11.8471 104.91 11.1075 105.915 10.5766C106.92 10.0267 108.039 9.75169 109.272 9.75169C110.618 9.75169 111.822 10.0361 112.884 10.605C113.946 11.1549 114.78 11.9704 115.387 13.0512C116.013 14.1321 116.326 15.4501 116.326 17.005V24.4006C116.326 24.704 116.222 24.96 116.013 25.1686C115.804 25.3772 115.548 25.4815 115.245 25.4815ZM103.014 25.4815C102.673 25.4815 102.398 25.3867 102.189 25.197C101.999 24.9884 101.905 24.7229 101.905 24.4006V11.0317C101.905 10.6904 101.999 10.4249 102.189 10.2352C102.398 10.0267 102.673 9.92236 103.014 9.92236C103.336 9.92236 103.592 10.0267 103.782 10.2352C103.991 10.4249 104.095 10.6904 104.095 11.0317V24.4006C104.095 24.7229 103.991 24.9884 103.782 25.197C103.592 25.3867 103.336 25.4815 103.014 25.4815ZM129.631 25.6237C128.095 25.6237 126.729 25.2918 125.535 24.6281C124.359 23.9455 123.43 23.0068 122.747 21.8121C122.084 20.6175 121.752 19.2521 121.752 17.7161C121.752 16.1612 122.065 14.7958 122.69 13.6201C123.335 12.4255 124.217 11.4868 125.336 10.8041C126.455 10.1215 127.744 9.78013 129.204 9.78013C130.645 9.78013 131.897 10.112 132.959 10.7757C134.04 11.4204 134.874 12.3212 135.462 13.4779C136.05 14.6347 136.344 15.9526 136.344 17.4317C136.344 17.7351 136.249 17.9816 136.059 18.1712C135.87 18.3419 135.623 18.4272 135.32 18.4272H123.231V16.6068H135.547L134.324 17.4886C134.343 16.3887 134.144 15.4027 133.727 14.5304C133.31 13.6581 132.712 12.9754 131.935 12.4824C131.176 11.9893 130.266 11.7428 129.204 11.7428C128.123 11.7428 127.175 11.9988 126.36 12.5108C125.544 13.0228 124.909 13.7339 124.454 14.6441C124.018 15.5354 123.8 16.5594 123.8 17.7161C123.8 18.8729 124.046 19.8969 124.539 20.7881C125.051 21.6794 125.743 22.381 126.616 22.893C127.488 23.405 128.493 23.661 129.631 23.661C130.313 23.661 130.996 23.5472 131.679 23.3197C132.38 23.0732 132.94 22.7698 133.357 22.4095C133.566 22.2388 133.803 22.1535 134.068 22.1535C134.334 22.1345 134.561 22.2009 134.751 22.3526C134.997 22.5801 135.121 22.8267 135.121 23.0921C135.14 23.3576 135.035 23.5852 134.808 23.7748C134.182 24.3058 133.385 24.7514 132.418 25.1117C131.451 25.453 130.522 25.6237 129.631 25.6237ZM143.036 25.4815C142.695 25.4815 142.42 25.3867 142.211 25.197C142.021 24.9884 141.927 24.7135 141.927 24.3721V11.0317C141.927 10.6904 142.021 10.4249 142.211 10.2352C142.42 10.0267 142.695 9.92236 143.036 9.92236C143.358 9.92236 143.614 10.0267 143.804 10.2352C144.012 10.4249 144.117 10.6904 144.117 11.0317V24.3721C144.117 24.7135 144.012 24.9884 143.804 25.197C143.614 25.3867 143.358 25.4815 143.036 25.4815ZM143.007 6.96413C142.59 6.96413 142.23 6.81243 141.927 6.50902C141.623 6.20562 141.471 5.83584 141.471 5.39969C141.471 4.92562 141.623 4.55584 141.927 4.29036C142.249 4.00591 142.619 3.86369 143.036 3.86369C143.434 3.86369 143.785 4.00591 144.088 4.29036C144.411 4.55584 144.572 4.92562 144.572 5.39969C144.572 5.83584 144.42 6.20562 144.117 6.50902C143.813 6.81243 143.444 6.96413 143.007 6.96413Z" fill="#9996FD"/>
<path d="M88.8889 8.88889C87.248 8.88889 85.6439 9.37546 84.2797 10.287C82.9156 11.1987 81.8519 12.4944 81.2243 14.0103C80.5961 15.5263 80.432 17.1944 80.752 18.8037C81.072 20.413 81.8625 21.8913 83.0228 23.0516C84.1825 24.2118 85.661 25.002 87.2705 25.3221C88.8794 25.6422 90.5476 25.4779 92.064 24.85C93.5799 24.222 94.8753 23.1587 95.7873 21.7944C96.6987 20.43 97.1852 18.826 97.1852 17.1852C97.1828 14.9856 96.3082 12.8767 94.7526 11.3214C93.1976 9.76604 91.0886 8.8912 88.8889 8.88889ZM88.8889 24.2051C87.5004 24.2051 86.1434 23.7934 84.989 23.022C83.8347 22.2507 82.9345 21.1543 82.4036 19.8716C81.872 18.5889 81.7327 17.1774 82.0036 15.8156C82.275 14.4539 82.9434 13.2031 83.9253 12.2213C84.9067 11.2396 86.1576 10.571 87.5194 10.3001C88.8812 10.0293 90.2927 10.1683 91.5751 10.6996C92.8581 11.2309 93.9544 12.1307 94.7259 13.2851C95.4969 14.4395 95.9087 15.7968 95.9087 17.1852C95.907 19.0463 95.1662 20.8306 93.8507 22.1467C92.5345 23.4628 90.7502 24.203 88.8889 24.2051ZM92.7182 17.1852C92.7182 17.3544 92.6507 17.5167 92.531 17.6364C92.4113 17.7561 92.2489 17.8233 92.08 17.8233H89.5271V20.3761C89.5271 20.5453 89.4596 20.7077 89.3404 20.8273C89.2207 20.947 89.0584 21.0142 88.8889 21.0142C88.7194 21.0142 88.557 20.947 88.4379 20.8273C88.3182 20.7077 88.2507 20.5453 88.2507 20.3761V17.8233H85.6978C85.5289 17.8233 85.3665 17.7561 85.2468 17.6364C85.1271 17.5167 85.0596 17.3544 85.0596 17.1852C85.0596 17.0159 85.1271 16.8536 85.2468 16.7339C85.3665 16.6142 85.5289 16.547 85.6978 16.547H88.2507V13.9943C88.2507 13.8251 88.3182 13.6627 88.4379 13.543C88.557 13.4233 88.7194 13.3561 88.8889 13.3561C89.0584 13.3561 89.2207 13.4233 89.3404 13.543C89.4596 13.6627 89.5271 13.8251 89.5271 13.9943V16.547H92.08C92.2489 16.547 92.4113 16.6142 92.531 16.7339C92.6507 16.8536 92.7182 17.0159 92.7182 17.1852Z" fill="#ADACB4"/>
</svg>
